<?xml version="1.0" encoding="UTF-8"?>
<svg width="36px" height="36px" viewBox="0 0 36 36" version="1.1" xmlns="http://www.w3.org/2000/svg" xmlns:xlink="http://www.w3.org/1999/xlink">
    <!-- Generator: Sketch 52.3 (67297) - http://www.bohemiancoding.com/sketch -->
    <title>close_eye</title>
    <desc>Created with Sketch.</desc>
    <g id="close_eye" stroke="none" stroke-width="1" fill="none" fill-rule="evenodd">
        <g id="Group">
            <rect id="Rectangle" fill-rule="nonzero" x="0" y="0" width="36" height="36"></rect>
            <path d="M18,24.060628 C16.9468163,24.060628 15.9571837,23.7644239 15.1029796,23.25173 L16.5511837,21.5620566 C16.9949388,21.7519749 17.4843673,21.8565464 18,21.8565464 C20.0408571,21.8565464 21.6734694,20.1422607 21.6734694,18.1014035 C21.6734694,17.38973 21.4891837,16.7336484 21.1682449,16.1752811 L22.6037143,14.5005464 C23.3500408,15.5042607 23.7958776,16.75373 23.7958776,18.1014035 C23.7958776,21.4484239 21.1836735,24.060628 18,24.060628 M12.2041224,18.1014035 C12.2041224,14.7545056 14.8163265,12.1423015 18,12.1423015 C19.0889388,12.1423015 20.1106531,12.4576076 20.9843265,13.0029953 L19.5435918,14.6838525 C19.075102,14.4668729 18.5528571,14.3463831 18,14.3463831 C15.9591429,14.3463831 14.3265306,16.0606688 14.3265306,18.1014035 C14.3265306,18.8520158 14.5315102,19.5407913 14.8856327,20.1183831 L13.4583673,21.7835668 C12.6748163,20.7663831 12.2041224,19.4858117 12.2041224,18.1014035 M24.4910204,12.2985464 L25.7588571,10.8192402 C26.155102,10.3571178 26.1014694,9.66136269 25.6394694,9.26536269 C25.1773469,8.86924024 24.4815918,8.92275045 24.0854694,9.38475045 L22.3076327,11.4590362 C20.9954694,11.069526 19.5502041,10.8361382 18,10.8361382 C11.1428571,10.8361382 6,15.7340974 6,18.1014035 C6,19.7003423 8.19232653,22.3078933 11.6223673,23.9256892 L10.047551,25.7630362 C9.65142857,26.2252811 9.70493878,26.9209137 10.1670612,27.3170362 C10.3749796,27.4951994 10.6299184,27.5823831 10.8837551,27.5823831 C11.1942857,27.5823831 11.5029796,27.45173 11.7210612,27.197526 L13.8112653,24.7588321 C15.1033469,25.139526 16.5111429,25.3667913 18,25.3667913 C25.0203673,25.3667913 30,20.3871586 30,18.1014035 C30,16.5565872 27.9138367,13.9344647 24.4910204,12.2985464" id="Fill-1" fill="#D8D8D8"></path>
        </g>
    </g>
</svg>