<?xml version="1.0" encoding="UTF-8"?>
<svg width="36px" height="36px" viewBox="0 0 36 36" version="1.1" xmlns="http://www.w3.org/2000/svg" xmlns:xlink="http://www.w3.org/1999/xlink">
    <!-- Generator: Sketch 52.3 (67297) - http://www.bohemiancoding.com/sketch -->
    <title>open_eye</title>
    <desc>Created with Sketch.</desc>
    <g id="open_eye" stroke="none" stroke-width="1" fill="none" fill-rule="evenodd">
        <g id="Group">
            <rect id="Rectangle" fill-rule="nonzero" x="0" y="0" width="36" height="36"></rect>
            <g id="Group-6" transform="translate(6.000000, 11.000000)" fill="#D8D8D8">
                <path d="M12,1.42863673 C8.81632653,1.42863673 6.20412245,4.04084082 6.20412245,7.38786122 C6.20412245,10.6530857 8.81632653,13.3469633 12,13.3469633 C15.1836735,13.3469633 17.7958776,10.7347592 17.7958776,7.38786122 C17.7958776,4.12251429 15.1836735,1.42863673 12,1.42863673 M24,7.38786122 C24,9.67349388 19.0203673,14.6531265 12,14.6531265 C5.14285714,14.6531265 0,9.83684082 0,7.38786122 C0,5.02043265 5.14285714,0.122473469 12,0.122473469 C19.1020408,0.122473469 24,5.02043265 24,7.38786122" id="Fill-1"></path>
                <path d="M12,3.63271837 C9.95914286,3.63271837 8.32653061,5.34700408 8.32653061,7.38786122 C8.32653061,9.51026939 9.95914286,11.1428816 12,11.1428816 C14.0408571,11.1428816 15.6734694,9.42859592 15.6734694,7.38786122 C15.6734694,5.26533061 14.0408571,3.63271837 12,3.63271837" id="Fill-4"></path>
            </g>
        </g>
    </g>
</svg>